#!OML:ASF G:\JayActor3\Patient Classification 1\Patient 1\Session 5\male.ASF
:FULLY-SPECIFIED
:DEGREES
665
root -6.20911 17.9136 -4.42625 -58.0227 84.0541 -58.766
lowerback 6.03968 -0.600791 6.00121
upperback 1.05384 -0.398205 -0.256756
thorax -2.34192 -0.234813 -3.60629
lowerneck -6.24254 0.900699 1.6481
upperneck 11.1577 0.915967 1.79238
head 4.84375 0.654593 0.376273
rclavicle 8.59744e-015 4.37326e-015
rhumerus -35.5006 1.61914 -90.3126
rradius 36.3019
rwrist -6.4496
rhand -20.9688 -33.8394
rfingers 7.12502
rthumb 5.40447 -63.7505
lclavicle 8.59744e-015 4.37326e-015
lhumerus -39.8389 20.9678 73.3301
lradius 13.8076
lwrist 4.93568
lhand -17.7224 11.9521
lfingers 7.12502
lthumb 8.53825 41.7595
rfemur 1.61177 2.25078 29.1547
rtibia 27.2839
rfoot 4.17363 -10.2839
rtoes -17.0159
lfemur -22.8596 10.7805 -16.9929
ltibia 16.3364
lfoot 20.3631 1.30571
ltoes -16.8045
666
root -6.33241 17.9166 -4.4074 -58.7281 84.1534 -59.3667
lowerback 6.11007 -0.632722 5.83301
upperback 1.13922 -0.448373 -0.266167
thorax -2.29703 -0.254771 -3.51722
lowerneck -6.29249 0.89782 1.64541
upperneck 11.2205 0.906261 1.8328
head 4.87721 0.653207 0.390958
rclavicle 8.24956e-015 -4.77083e-015
rhumerus -35.5607 1.6159 -90.3067
rradius 36.1956
rwrist -5.99423
rhand -20.9497 -34.1451
rfingers 7.12502
rthumb 5.42295 -64.0557
lclavicle 8.24956e-015 -4.77083e-015
lhumerus -39.8689 21.0762 73.2138
lradius 13.7608
lwrist 4.74401
lhand -17.3486 11.9488
lfingers 7.12502
lthumb 8.89899 41.7411
rfemur 0.90482 2.14268 29.1764
rtibia 27.961
rfoot 4.01393 -10.3173
rtoes -16.7327
lfemur -22.7112 10.7653 -16.9658
ltibia 16.8218
lfoot 18.8293 0.842927
ltoes -17.6017
667
root -6.45288 17.9209 -4.3897 -59.1838 84.2749 -59.7013
lowerback 6.18947 -0.657921 5.63705
upperback 1.21944 -0.491155 -0.287787
thorax -2.26144 -0.271493 -3.42571
lowerneck -6.27811 0.891471 1.65832
upperneck 11.6248 0.885568 1.89234
head 4.51275 0.654606 0.364009
rclavicle -1.39149e-015 -3.18055e-015
rhumerus -35.6289 1.57747 -90.2833
rradius 36.0329
rwrist -5.47405
rhand -20.9075 -34.4444
rfingers 7.12502
rthumb 5.46362 -64.3539
lclavicle -1.39149e-015 -3.18055e-015
lhumerus -39.9118 21.2139 73.0575
lradius 13.6993
lwrist 4.51021
lhand -17.0417 11.9009
lfingers 7.12502
lthumb 9.19512 41.6804
rfemur 0.236518 2.01659 29.1575
rtibia 28.6114
rfoot 3.87769 -10.3845
rtoes -16.3639
lfemur -22.5361 10.696 -16.9547
ltibia 17.479
lfoot 17.3745 0.410294
ltoes -18.5689
668
root -6.56988 17.927 -4.37375 -59.4872 84.4092 -59.8799
lowerback 6.26812 -0.678522 5.43489
upperback 1.28307 -0.52846 -0.318176
thorax -2.24189 -0.286542 -3.34016
lowerneck -6.29501 0.882047 1.65739
upperneck 11.6956 0.867644 1.93477
head 4.53717 0.6498 0.376654
rclavicle -1.39149e-015 3.57812e-015
rhumerus -35.7289 1.49593 -90.2343
rradius 35.8253
rwrist -4.93066
rhand -20.8583 -34.6135
rfingers 7.12502
rthumb 5.51117 -64.5219
lclavicle -1.39149e-015 3.57812e-015
lhumerus -39.9813 21.3632 72.8667
lradius 13.6247
lwrist 4.25846
lhand -16.8229 11.7944
lfingers 7.12502
lthumb 9.40622 41.5645
rfemur -0.379948 1.86689 29.1077
rtibia 29.1949
rfoot 3.77066 -10.4701
rtoes -15.9159
lfemur -22.376 10.625 -16.9653
ltibia 18.3566
lfoot 16.05 -0.0284718
ltoes -19.6774
669
root -6.6831 17.935 -4.35975 -59.7663 84.5489 -60.0346
lowerback 6.34159 -0.698154 5.24046
upperback 1.32704 -0.564343 -0.35159
thorax -2.23956 -0.302041 -3.26212
lowerneck -6.29507 0.871691 1.65676
upperneck 11.7807 0.848942 1.97839
head 4.56316 0.645044 0.389563
rclavicle -1.98785e-016 -2.26615e-014
rhumerus -35.8653 1.38018 -90.1582
rradius 35.5786
rwrist -4.39257
rhand -20.8305 -34.5808
rfingers 7.12502
rthumb 5.53798 -64.4884
lclavicle -1.98785e-016 -2.26615e-014
lhumerus -40.0808 21.513 72.653
lradius 13.5415
lwrist 4.00478
lhand -16.7176 11.7143
lfingers 7.12502
lthumb 9.5078 41.4798
rfemur -0.929522 1.70055 29.0421
rtibia 29.6843
rfoot 3.6946 -10.5652
rtoes -15.4467
lfemur -22.2513 10.5752 -16.9945
ltibia 19.4831
lfoot 14.8609 -0.496079
ltoes -20.9817
670
root -6.79198 17.9447 -4.34787 -59.9308 84.6775 -60.0773
lowerback 6.39901 -0.712058 5.06415
upperback 1.35301 -0.592387 -0.384416
thorax -2.24613 -0.31452 -3.19429
lowerneck -6.28056 0.859299 1.65596
upperneck 11.8816 0.828075 2.02195
head 4.59155 0.639596 0.402369
rclavicle 8.15017e-015 -4.37326e-015
rhumerus -36.0422 1.23702 -90.057
rradius 35.3129
rwrist -3.88554
rhand -20.8286 -34.4094
rfingers 7.12502
rthumb 5.53988 -64.317
lclavicle 8.15017e-015 -4.37326e-015
lhumerus -40.2105 21.631 72.4417
lradius 13.4669
lwrist 3.79074
lhand -16.7143 11.6894
lfingers 7.12502
lthumb 9.51102 41.4548
rfemur -1.40604 1.53798 28.9698
rtibia 30.068
rfoot 3.65162 -10.6551
rtoes -15.011
lfemur -22.1615 10.5491 -17.0283
ltibia 20.8638
lfoot 13.7824 -0.919806
ltoes -22.3849
671
root -6.89711 17.9556 -4.3377 -60.0121 84.7897 -60.0426
lowerback 6.43856 -0.720872 4.90738
upperback 1.36273 -0.61333 -0.41357
thorax -2.25891 -0.324184 -3.13426
lowerneck -6.25831 0.847145 1.65266
upperneck 11.9988 0.807577 2.06996
head 4.62365 0.634894 0.417034
rclavicle -2.93207e-015 -4.77083e-015
rhumerus -36.2533 1.07218 -89.9322
rradius 35.0397
rwrist -3.42913
rhand -20.8626 -34.1018
rfingers 7.12502
rthumb 5.50703 -64.0103
lclavicle -2.93207e-015 -4.77083e-015
lhumerus -40.3614 21.7242 72.2329
lradius 13.3986
lwrist 3.60693
lhand -16.8071 11.7228
lfingers 7.12502
lthumb 9.42145 41.4922
rfemur -1.81904 1.39406 28.9007
rtibia 30.3517
rfoot 3.64433 -10.7344
rtoes -14.6751
lfemur -22.1019 10.5359 -17.055
ltibia 22.4808
lfoot 12.7825 -1.21485
ltoes -23.7687
672
root -6.99929 17.9674 -4.32876 -60.0967 84.8841 -60.0203
lowerback 6.45463 -0.725882 4.7731
upperback 1.36236 -0.628916 -0.437094
thorax -2.26861 -0.331505 -3.08159
lowerneck -6.23699 0.835454 1.64369
upperneck 12.1272 0.78748 2.12456
head 4.65927 0.630838 0.434757
rclavicle 2.73329e-015 1.19271e-015
rhumerus -36.4866 0.898369 -89.7926
rradius 34.777
rwrist -3.04042
rhand -20.9162 -33.7866
rfingers 7.12502
rthumb 5.45526 -63.6964
lclavicle 2.73329e-015 1.19271e-015
lhumerus -40.5139 21.7641 72.0532
lradius 13.3464
lwrist 3.49161
lhand -16.9123 11.7456
lfingers 7.12502
lthumb 9.31999 41.5196
rfemur -2.18723 1.27301 28.8442
rtibia 30.5566
rfoot 3.67542 -10.7974
rtoes -14.5122
lfemur -22.0596 10.5229 -17.0623
ltibia 24.2973
lfoot 11.8681 -1.32056
ltoes -25.0084
673
root -7.09944 17.9789 -4.32031 -60.2307 84.9588 -60.0594
lowerback 6.44266 -0.726971 4.65997
upperback 1.35869 -0.639254 -0.454594
thorax -2.2657 -0.336133 -3.0352
lowerneck -6.22743 0.822633 1.62936
upperneck 12.2599 0.765233 2.18489
head 4.69821 0.625996 0.4551
rclavicle -6.70898e-015 -3.97569e-016
rhumerus -36.7213 0.719984 -89.646
rradius 34.5303
rwrist -2.71616
rhand -20.9614 -33.5741
rfingers 7.12502
rthumb 5.41159 -63.485
lclavicle -6.70898e-015 -3.97569e-016
lhumerus -40.648 21.744 71.9123
lradius 13.3132
lwrist 3.44975
lhand -17.0046 11.7365
lfingers 7.12502
lthumb 9.23087 41.5145
rfemur -2.53262 1.18303 28.8089
rtibia 30.7131
rfoot 3.72027 -10.8529
rtoes -14.4118
lfemur -22.0243 10.5072 -17.0411
ltibia 26.2704
lfoot 11.049 -1.27103
ltoes -26.1436
674
root -7.19869 17.9891 -4.3118 -60.4591 85.0227 -60.2091
lowerback 6.40503 -0.72675 4.56008
upperback 1.35309 -0.648214 -0.468806
thorax -2.25039 -0.339946 -2.99313
lowerneck -6.23208 0.810255 1.61254
upperneck 12.3898 0.742705 2.24941
head 4.7387 0.621171 0.477207
rclavicle 1.63997e-015 1.74931e-014
rhumerus -36.9495 0.535376 -89.4982
rradius 34.2952
rwrist -2.42822
rhand -21.0211 -33.4353
rfingers 7.12502
rthumb 5.35397 -63.3477
lclavicle 1.63997e-015 1.74931e-014
lhumerus -40.7504 21.6635 71.8126
lradius 13.2977
lwrist 3.47229
lhand -17.0662 11.7256
lfingers 7.12502
lthumb 9.17142 41.5061
rfemur -2.88402 1.1128 28.79
rtibia 30.8524
rfoot 3.7727 -10.8996
rtoes -14.3608
lfemur -21.9881 10.4947 -16.9957
ltibia 28.3564
lfoot 10.3354 -1.11257
ltoes -27.1023
675
root -7.29773 17.9974 -4.30281 -60.8554 85.0783 -60.5408
lowerback 6.34632 -0.727617 4.47221
upperback 1.34821 -0.658756 -0.479847
thorax -2.22277 -0.344353 -2.95458
lowerneck -6.24388 0.796744 1.5899
upperneck 12.5042 0.718304 2.31875
head 4.77565 0.61518 0.501609
rclavicle 6.4605e-016 -1.07344e-014
rhumerus -37.1627 0.35162 -89.3552
rradius 34.0806
rwrist -2.18234
rhand -21.0709 -33.4303
rfingers 7.12502
rthumb 5.30592 -63.3439
lclavicle 6.4605e-016 -1.07344e-014
lhumerus -40.8168 21.5468 71.7371
lradius 13.2897
lwrist 3.52441
lhand -17.0996 11.7359
lfingers 7.12502
lthumb 9.1392 41.5179
rfemur -3.25234 1.06014 28.7912
rtibia 31.0008
rfoot 3.804 -10.9495
rtoes -14.2611
lfemur -21.9358 10.4838 -16.9174
ltibia 30.5135
lfoot 9.73275 -0.928384
ltoes -27.8875
676
root -7.39702 18.0037 -4.2932 -61.3466 85.1314 -60.982
lowerback 6.27386 -0.729052 4.38538
upperback 1.34076 -0.670546 -0.489944
thorax -2.1902 -0.349381 -2.91562
lowerneck -6.26066 0.782922 1.56486
upperneck 12.6029 0.693383 2.38859
head 4.8086 0.608553 0.526479
rclavicle -1.2275e-014 2.34566e-014
rhumerus -37.3659 0.162431 -89.2144
rradius 33.8845
rwrist -1.9633
rhand -21.1065 -33.5134
rfingers 7.12502
rthumb 5.2715 -63.4278
lclavicle -1.2275e-014 2.34566e-014
lhumerus -40.8553 21.4199 71.662
lradius 13.283
lwrist 3.58563
lhand -17.0987 11.7724
lfingers 7.12502
lthumb 9.14015 41.5543
rfemur -3.64926 1.01748 28.8022
rtibia 31.1735
rfoot 3.80971 -10.9981
rtoes -14.081
lfemur -21.8586 10.4677 -16.8085
ltibia 32.7039
lfoot 9.23564 -0.778333
ltoes -28.4987
